<?xml version="1.0" standalone="no"?>
<!DOCTYPE svg PUBLIC "-//W3C//DTD SVG 20010904//EN"
 "http://www.w3.org/TR/2001/REC-SVG-20010904/DTD/svg10.dtd">
<svg version="1.0" xmlns="http://www.w3.org/2000/svg"
 width="214.000000pt" height="214.000000pt" viewBox="0 0 214.000000 214.000000"
 preserveAspectRatio="xMidYMid meet">
<metadata>
Created by potrace 1.15, written by Peter Selinger 2001-2017
</metadata>
<g transform="translate(0.000000,214.000000) scale(0.100000,-0.100000)"
fill="#000000" stroke="none">
<path d="M866 2004 c-359 -77 -656 -377 -730 -737 -21 -99 -21 -295 0 -394 35
-171 119 -326 248 -461 136 -142 309 -239 492 -277 95 -19 293 -19 388 0 304
63 579 295 693 583 46 120 63 212 63 352 0 69 -6 152 -15 194 -75 361 -378
666 -738 740 -96 20 -307 20 -401 0z m387 -35 c588 -119 903 -755 643 -1296
-131 -272 -366 -451 -668 -508 -218 -41 -472 11 -661 136 -488 324 -558 1006
-146 1418 221 221 527 313 832 250z"/>
<path d="M1045 1834 c-83 -17 -161 -42 -228 -71 -89 -39 -127 -39 -127 1 0 17
8 27 28 34 l27 10 -27 1 c-35 1 -55 -31 -39 -65 15 -34 51 -39 106 -15 63 28
70 27 95 -14 l21 -34 -21 -72 c-24 -81 -60 -123 -98 -116 -17 3 -22 0 -20 -12
2 -9 13 -17 25 -19 22 -3 99 39 121 66 14 19 16 46 2 37 -13 -8 -12 2 5 45
l13 35 1 -50 c1 -32 -5 -59 -16 -75 -16 -23 -16 -23 3 -16 22 8 15 1 -41 -39
-22 -16 -34 -21 -26 -12 10 13 10 17 1 17 -20 0 -90 -76 -90 -96 1 -17 1 -18
10 -2 6 9 24 27 41 38 l30 22 -6 -29 -6 -28 17 26 c9 14 37 38 63 54 25 16 55
35 66 44 12 9 -1 -4 -27 -29 -27 -25 -48 -49 -48 -54 0 -5 8 -2 18 6 9 8 38
26 65 41 35 19 47 22 47 11 0 -8 -4 -14 -9 -14 -5 0 -23 -12 -41 -26 -21 -18
-29 -32 -25 -45 5 -14 -1 -22 -22 -31 -37 -16 -36 -15 -28 -28 5 -8 13 -6 26
6 12 11 19 13 19 5 0 -9 5 -8 15 3 8 8 15 23 15 34 0 21 23 46 32 36 4 -3 20
2 37 10 45 24 56 19 24 -9 -21 -18 -24 -24 -12 -25 9 0 22 7 29 15 7 8 17 15
23 15 6 0 -2 -14 -19 -32 -16 -18 -21 -26 -11 -19 20 16 36 6 19 -11 -15 -15
-16 -31 -1 -23 6 4 5 -2 -2 -13 -17 -28 -52 -42 -102 -42 -31 0 -38 -3 -27
-10 13 -8 10 -14 -14 -35 -34 -29 -67 -32 -107 -8 -32 19 -41 50 -11 38 9 -4
28 -9 42 -12 17 -2 13 1 -12 13 -21 9 -38 22 -38 29 0 15 29 41 78 71 20 13
31 24 24 24 -15 0 -83 -42 -99 -62 -7 -8 -15 -33 -19 -55 -6 -39 -4 -42 24
-57 52 -27 97 -21 141 19 44 40 70 44 97 14 10 -12 38 -30 62 -40 37 -16 42
-22 42 -51 -1 -31 -5 -35 -74 -66 -94 -43 -130 -38 -203 28 -54 49 -121 76
-168 68 -19 -4 -33 2 -54 23 -16 16 -53 35 -85 44 -44 13 -62 24 -76 48 -43
70 -34 182 21 257 33 45 111 100 143 100 17 0 18 2 6 10 -24 16 -92 11 -135
-9 -22 -10 -79 -56 -126 -102 -71 -70 -90 -94 -105 -139 -23 -69 -23 -154 0
-198 28 -55 68 -72 168 -72 93 0 113 -9 72 -31 -45 -24 -76 -91 -76 -162 0
-34 5 -75 11 -90 17 -45 -15 -95 -86 -131 -20 -10 -35 -27 -39 -43 -6 -23 1
-33 60 -86 37 -32 80 -79 97 -103 16 -24 34 -44 39 -44 5 0 22 -13 38 -30 17
-16 39 -30 50 -30 25 0 92 -28 92 -38 0 -16 59 -42 94 -42 20 0 36 2 36 4 0 2
-7 23 -15 47 -20 55 -47 85 -107 115 -50 26 -61 37 -64 69 -3 29 3 37 59 69
26 15 64 49 84 77 38 50 47 56 58 39 12 -19 98 -57 203 -90 102 -32 119 -33
207 -16 21 5 37 1 55 -13 21 -17 23 -22 12 -46 -8 -17 -9 -32 -3 -43 14 -26
-73 -126 -97 -113 -10 5 -28 9 -42 10 -14 0 -39 3 -57 7 -28 5 -37 1 -65 -27
l-33 -33 30 -7 c17 -5 45 -22 63 -39 37 -33 44 -35 93 -19 62 19 81 33 100 71
10 20 39 54 64 75 25 20 48 46 52 58 6 20 7 20 12 -1 6 -20 8 -21 54 -9 26 7
55 20 65 29 9 9 29 25 44 36 19 15 35 46 58 116 23 67 43 108 70 139 66 76 62
126 -13 146 -40 11 -104 8 -174 -7 -31 -6 -33 -5 -33 23 0 17 -12 48 -26 69
-17 25 -30 62 -36 104 -5 36 -18 86 -28 113 -22 57 -29 55 126 25 l113 -22 12
-48 c16 -69 73 -92 106 -42 12 19 11 24 -6 45 l-20 24 6 -37 c5 -36 4 -38 -20
-38 -31 0 -42 18 -52 85 -15 107 -84 261 -150 334 -18 20 -42 57 -54 83 -13
28 -34 54 -55 67 -33 21 -61 28 -52 13 2 -4 0 -14 -5 -22 -8 -12 -9 -11 -7 5
8 53 -243 114 -367 89z m253 -60 c42 -14 81 -23 89 -20 27 11 12 -4 -24 -23
-35 -18 -36 -20 -13 -21 22 -1 15 -10 -58 -80 -46 -44 -90 -80 -97 -80 -19 0
-38 27 -25 35 5 3 10 -1 10 -10 0 -14 3 -14 30 0 31 16 43 42 14 31 -19 -7
-69 18 -77 38 -8 20 -129 86 -159 86 -14 0 -37 -9 -51 -20 l-25 -20 -20 32
c-12 18 -19 35 -16 39 3 6 99 31 164 43 54 10 186 -6 258 -30z m183 -44 c26
-15 24 -32 -3 -25 -20 5 -23 2 -25 -26 -2 -24 1 -30 13 -25 16 6 30 -17 19
-34 -5 -8 -13 -6 -26 6 -11 9 -22 14 -26 11 -3 -4 -1 -7 6 -7 6 0 15 -9 19
-21 8 -20 8 -20 31 -1 l24 18 37 -40 c21 -23 51 -63 67 -91 28 -48 83 -176 83
-193 0 -5 -59 2 -131 15 -106 19 -135 28 -150 46 -10 12 -16 28 -14 35 2 7 0
24 -5 38 -9 22 -6 30 25 58 33 32 49 86 26 86 -5 0 -13 9 -16 21 -4 11 -9 18
-12 15 -3 -3 0 -19 7 -36 10 -24 10 -36 1 -57 -10 -22 -14 -24 -22 -12 -7 12
-9 11 -9 -3 0 -9 -4 -19 -9 -23 -6 -3 -8 8 -5 27 5 27 1 38 -20 57 l-26 25 32
27 c18 15 30 31 25 35 -4 4 -13 0 -20 -9 -15 -20 -120 -87 -126 -81 -3 2 22
31 54 64 45 46 62 57 72 48 10 -8 13 -6 13 7 0 19 38 54 58 55 7 0 22 -5 33
-10z m-861 -78 c-14 -9 -46 -37 -72 -64 -57 -57 -83 -132 -75 -214 9 -92 39
-124 128 -139 21 -3 49 -15 64 -27 26 -20 27 -22 9 -35 -24 -18 -40 -16 -72 6
-15 11 -55 25 -90 31 -35 6 -71 13 -80 16 -15 5 -14 3 1 -9 11 -9 36 -19 58
-22 21 -4 37 -10 35 -14 -7 -11 -118 -3 -143 10 -39 21 -56 73 -51 156 6 93
23 114 23 30 1 -39 7 -73 18 -92 l17 -30 -7 30 c-11 45 -8 115 7 168 19 69 28
66 23 -6 -3 -34 0 -73 5 -87 9 -21 10 -15 10 36 0 34 6 81 13 105 18 58 100
142 154 156 53 14 54 14 25 -5z m620 -171 c24 -7 24 -7 5 -18 -17 -10 -13 -11
20 -6 30 4 44 1 54 -11 12 -14 10 -16 -15 -17 -30 -1 -27 -3 19 -13 21 -5 27
-12 27 -32 0 -19 -4 -24 -17 -20 -10 3 -47 10 -83 16 -36 6 -78 14 -95 17
l-30 6 25 8 c23 6 23 7 3 8 l-22 1 22 35 c22 35 38 40 87 26z m-14 -111 c54
-11 99 -22 101 -24 2 -2 -10 -8 -26 -14 -41 -15 -40 -23 2 -10 64 21 87 22 87
3 0 -9 -4 -25 -10 -35 -12 -22 -1 -142 11 -134 12 7 11 48 -2 78 -9 19 -8 29
3 45 13 19 17 20 28 6 7 -8 9 -22 6 -31 -4 -9 -1 -23 5 -30 8 -10 8 -22 0 -45
-9 -26 -9 -29 3 -20 11 9 19 3 40 -33 14 -25 26 -50 26 -56 0 -6 7 -13 15 -16
54 -21 0 -296 -70 -354 -8 -7 -18 -10 -22 -6 -4 3 0 12 9 19 24 19 38 74 37
146 l-2 66 -7 -72 c-4 -39 -16 -85 -26 -102 -18 -30 -19 -31 -30 -10 -8 16 -8
30 0 50 8 21 7 32 -2 41 -9 9 -12 6 -12 -14 0 -15 -5 -30 -12 -34 -6 -4 -8 -3
-5 4 4 5 3 21 -2 34 -10 23 -10 23 -10 -4 -1 -20 -6 -28 -18 -29 -14 0 -13 -2
4 -9 22 -9 53 -57 53 -83 0 -8 16 -38 35 -66 41 -60 44 -94 11 -124 -14 -12
-38 -35 -55 -50 -18 -16 -40 -46 -51 -67 -32 -62 -118 -80 -172 -35 -16 14
-38 25 -49 25 -29 0 -23 17 11 35 35 18 75 11 66 -11 -6 -16 10 -19 19 -4 8
13 48 13 61 0 7 -7 28 8 67 50 48 50 55 63 48 82 -5 13 -5 33 0 46 6 14 5 31
-1 42 -9 17 -85 60 -106 60 -17 0 -52 43 -59 72 -4 16 -11 26 -16 23 -4 -3
-11 11 -14 32 -10 59 -13 62 -14 13 -1 -52 34 -116 77 -143 l26 -15 -37 -7
c-71 -14 -166 22 -225 83 -37 39 -34 28 6 -25 13 -18 21 -33 18 -33 -10 0
-118 56 -140 73 -16 12 -19 25 -18 63 2 41 -3 58 -34 107 -20 32 -39 56 -42
53 -3 -3 11 -32 31 -65 41 -65 44 -85 23 -136 -18 -42 -100 -132 -130 -141
-41 -12 -56 -35 -56 -83 0 -41 4 -49 29 -64 16 -9 36 -17 45 -17 36 0 122
-117 102 -138 -11 -11 -61 12 -87 39 -15 16 -34 29 -44 29 -9 0 -21 13 -26 29
-11 31 -47 61 -73 61 -8 0 -17 4 -20 9 -4 5 4 7 16 5 l23 -5 -22 12 c-35 18
-34 36 2 81 74 92 77 131 11 181 -92 71 -121 212 -62 300 12 18 46 47 76 65
44 26 65 32 110 32 62 0 92 -16 149 -78 47 -51 113 -64 166 -33 l34 19 -15
-40 c-8 -22 -14 -48 -13 -57 0 -9 7 3 16 27 8 23 28 56 45 72 31 32 64 41 54
15 -3 -8 -1 -25 4 -37 8 -22 9 -22 9 5 1 35 25 81 51 100 19 14 19 14 -10 13
-24 -1 -30 -5 -30 -23 0 -13 -4 -23 -10 -23 -5 0 -10 15 -10 34 0 31 4 35 33
41 17 4 36 10 42 13 13 8 -31 20 -75 20 l-35 0 35 -10 c19 -6 29 -13 23 -15
-29 -10 -143 44 -143 68 0 14 16 11 65 -12 25 -12 49 -19 52 -15 4 3 0 6 -8 6
-10 1 -8 5 5 15 19 14 17 15 -20 15 -48 0 -67 11 -58 33 7 18 24 22 40 8 15
-14 57 -20 79 -11 19 8 19 9 -3 9 -15 1 -21 5 -16 13 5 8 2 9 -10 5 -20 -8
-86 17 -86 32 0 14 -9 15 106 -9z m-681 -323 c-21 -50 -19 -152 4 -202 10 -22
35 -55 55 -73 47 -41 37 -58 -39 -67 -51 -7 -53 -9 -60 -41 -7 -39 4 -64 40
-92 14 -11 25 -27 25 -37 0 -9 5 -26 11 -37 21 -39 -9 -14 -44 37 -18 28 -59
69 -90 93 -69 53 -73 76 -18 98 21 8 54 31 71 51 32 35 33 37 21 85 -17 76
-14 143 10 189 25 50 35 46 14 -4z m1243 -103 c12 -8 22 -19 22 -25 0 -14 -31
-79 -37 -79 -13 0 -50 25 -65 44 -10 11 -18 16 -18 10 0 -6 -12 -9 -29 -6 -15
2 -43 -4 -61 -13 -37 -19 -35 -30 4 -15 15 5 32 10 39 10 15 0 -52 -69 -84
-85 l-26 -14 5 77 c2 42 6 78 7 80 1 1 26 11 56 22 60 23 146 20 187 -6z m-93
-94 c11 -18 -49 -133 -93 -178 -23 -24 -42 -50 -42 -58 0 -8 -3 -13 -7 -13
-22 4 -34 -4 -47 -28 -13 -24 -15 -25 -16 -8 0 11 -14 37 -30 59 l-29 39 51
46 c28 25 65 53 82 63 17 9 47 32 65 52 36 37 55 44 66 26z m45 -44 c-11 -18
-34 -73 -50 -121 -16 -48 -35 -94 -41 -102 -15 -17 -110 -63 -132 -63 -21 0
-21 3 -2 40 16 31 38 39 52 18 5 -8 10 2 13 27 4 29 11 43 27 50 21 9 88 104
111 158 6 15 18 27 26 27 13 0 12 -6 -4 -34z"/>
</g>
</svg>
